{
  "accessors": [
    {
      "bufferView": 2,
      "componentType": 5126,
      "count": 1797,
      "max": [
        0.03575316071510315,
        0.15372134745121002,
        0.0057956320233643055
      ],
      "min": [
        -0.03697512298822403,
        0.0011283544590696692,
        0.0026568409521132708
      ],
      "type": "VEC3"
    },
    {
      "bufferView": 2,
      "byteOffset": 21564,
      "componentType": 5126,
      "count": 1797,
      "max": [
        0.999991774559021,
        0.9999980926513672,
        1.0
      ],
      "min": [
        -0.9999970197677612,
        -0.9999980926513672,
        0.0004000171320512891
      ],
      "type": "VEC3"
    },
    {
      "bufferView": 1,
      "componentType": 5126,
      "count": 1797,
      "max": [
        0.7644824385643005,
        0.9965357184410095
      ],
      "min": [
        0.003493949305266142,
        0.01676654815673828
      ],
      "type": "VEC2"
    },
    {
      "bufferView": 0,
      "componentType": 5125,
      "count": 8160,
      "type": "SCALAR"
    },
    {
      "bufferView": 2,
      "byteOffset": 43128,
      "componentType": 5126,
      "count": 6646,
      "max": [
        0.037170615047216415,
        0.15484850108623505,
        0.007862841710448265
      ],
      "min": [
        -0.03837535157799721,
        8.728139100355747e-09,
        -0.0027672280557453632
      ],
      "type": "VEC3"
    },
    {
      "bufferView": 2,
      "byteOffset": 122880,
      "componentType": 5126,
      "count": 6646,
      "max": [
        1.0,
        1.0,
        0.9999996423721313
      ],
      "min": [
        -1.0,
        -1.0,
        -0.9999920129776001
      ],
      "type": "VEC3"
    },
    {
      "bufferView": 1,
      "byteOffset": 14376,
      "componentType": 5126,
      "count": 6646,
      "max": [
        1.0000001192092896,
        1.0
      ],
      "min": [
        -5.771368272178279e-09,
        0.002732396125793457
      ],
      "type": "VEC2"
    },
    {
      "bufferView": 0,
      "byteOffset": 32640,
      "componentType": 5125,
      "count": 28590,
      "type": "SCALAR"
    },
    {
      "bufferView": 2,
      "byteOffset": 202632,
      "componentType": 5126,
      "count": 322,
      "max": [
        0.03688885271549225,
        0.13951919972896576,
        0.00277456222102046
      ],
      "min": [
        -0.038111135363578796,
        0.015229104086756706,
        -0.0027143401093780994
      ],
      "type": "VEC3"
    },
    {
      "bufferView": 2,
      "byteOffset": 206496,
      "componentType": 5126,
      "count": 322,
      "max": [
        1.0,
        1.0,
        0.9999911785125732
      ],
      "min": [
        -1.0,
        -1.0,
        -0.9999911785125732
      ],
      "type": "VEC3"
    },
    {
      "bufferView": 1,
      "byteOffset": 67544,
      "componentType": 5126,
      "count": 322,
      "max": [
        0.9999962449073792,
        0.965865969657898
      ],
      "min": [
        -5.771368272178279e-09,
        0.045714735984802246
      ],
      "type": "VEC2"
    },
    {
      "bufferView": 0,
      "byteOffset": 147000,
      "componentType": 5125,
      "count": 1008,
      "type": "SCALAR"
    },
    {
      "bufferView": 2,
      "byteOffset": 210360,
      "componentType": 5126,
      "count": 68,
      "max": [
        0.03504969924688339,
        0.15296697616577148,
        -0.002725654048845172
      ],
      "min": [
        -0.03628966957330704,
        0.0018833489157259464,
        -0.0027256952598690987
      ],
      "type": "VEC3"
    },
    {
      "bufferView": 2,
      "byteOffset": 211176,
      "componentType": 5126,
      "count": 68,
      "max": [
        0.0,
        0.0,
        -1.0
      ],
      "min": [
        0.0,
        0.0,
        -1.0
      ],
      "type": "VEC3"
    },
    {
      "bufferView": 1,
      "byteOffset": 70120,
      "componentType": 5126,
      "count": 68,
      "max": [
        0.9970348477363586,
        1.0
      ],
      "min": [
        0.0048996806144714355,
        0.0
      ],
      "type": "VEC2"
    },
    {
      "bufferView": 1,
      "byteOffset": 70664,
      "componentType": 5126,
      "count": 68,
      "max": [
        0.9970348477363586,
        1.0
      ],
      "min": [
        0.0048996806144714355,
        0.0
      ],
      "type": "VEC2"
    },
    {
      "bufferView": 0,
      "byteOffset": 151032,
      "componentType": 5125,
      "count": 198,
      "type": "SCALAR"
    },
    {
      "bufferView": 2,
      "byteOffset": 211992,
      "componentType": 5126,
      "count": 76,
      "max": [
        0.006908672861754894,
        0.087496817111969,
        0.0027884026058018208
      ],
      "min": [
        -0.008572561666369438,
        0.06844351440668106,
        0.00278840190730989
      ],
      "type": "VEC3"
    },
    {
      "bufferView": 2,
      "byteOffset": 212904,
      "componentType": 5126,
      "count": 76,
      "max": [
        0.0,
        0.0,
        1.0
      ],
      "min": [
        0.0,
        0.0,
        1.0
      ],
      "type": "VEC3"
    },
    {
      "bufferView": 1,
      "byteOffset": 71208,
      "componentType": 5126,
      "count": 76,
      "max": [
        0.15163366496562958,
        0.769127368927002
      ],
      "min": [
        0.09926212579011917,
        0.7046718001365662
      ],
      "type": "VEC2"
    },
    {
      "bufferView": 0,
      "byteOffset": 151824,
      "componentType": 5125,
      "count": 216,
      "type": "SCALAR"
    },
    {
      "bufferView": 2,
      "byteOffset": 213816,
      "componentType": 5126,
      "count": 116,
      "max": [
        0.03449341282248497,
        0.1524714231491089,
        0.008220206014811993
      ],
      "min": [
        -0.03571592643857002,
        0.002379393670707941,
        -0.0028896916192024946
      ],
      "type": "VEC3"
    },
    {
      "bufferView": 2,
      "byteOffset": 215208,
      "componentType": 5126,
      "count": 116,
      "max": [
        0.0017999971751123667,
        0.0007999998051673174,
        1.0
      ],
      "min": [
        -0.0017999971751123667,
        -0.0007999998051673174,
        -1.0
      ],
      "type": "VEC3"
    },
    {
      "bufferView": 1,
      "byteOffset": 71816,
      "componentType": 5126,
      "count": 116,
      "max": [
        0.9836206436157227,
        1.0
      ],
      "min": [
        0.10971980541944504,
        0.435396671295166
      ],
      "type": "VEC2"
    },
    {
      "bufferView": 0,
      "byteOffset": 152688,
      "componentType": 5125,
      "count": 330,
      "type": "SCALAR"
    },
    {
      "bufferView": 2,
      "byteOffset": 216600,
      "componentType": 5126,
      "count": 2991,
      "max": [
        0.03574840724468231,
        0.15371671319007874,
        0.008272957056760788
      ],
      "min": [
        -0.036970704793930054,
        0.00011518492829054594,
        -0.0028896916192024946
      ],
      "type": "VEC3"
    },
    {
      "bufferView": 2,
      "byteOffset": 252492,
      "componentType": 5126,
      "count": 2991,
      "max": [
        0.9999973773956299,
        0.9999971389770508,
        1.0
      ],
      "min": [
        -0.9999973773956299,
        -1.0,
        -1.0
      ],
      "type": "VEC3"
    },
    {
      "bufferView": 1,
      "byteOffset": 72744,
      "componentType": 5126,
      "count": 2991,
      "max": [
        0.7661976218223572,
        0.9975327849388123
      ],
      "min": [
        1.0243027759315737e-08,
        0.036246538162231445
      ],
      "type": "VEC2"
    },
    {
      "bufferView": 0,
      "byteOffset": 154008,
      "componentType": 5125,
      "count": 11472,
      "type": "SCALAR"
    },
    {
      "bufferView": 2,
      "byteOffset": 288384,
      "componentType": 5126,
      "count": 602,
      "max": [
        -0.019563596695661545,
        0.1411299854516983,
        0.0072453864850103855
      ],
      "min": [
        -0.02413458377122879,
        0.13655899465084076,
        0.00620310241356492
      ],
      "type": "VEC3"
    },
    {
      "bufferView": 2,
      "byteOffset": 295608,
      "componentType": 5126,
      "count": 602,
      "max": [
        0.9774661064147949,
        0.9774867296218872,
        1.0
      ],
      "min": [
        -0.9774661064147949,
        -0.9774661064147949,
        0.21099713444709778
      ],
      "type": "VEC3"
    },
    {
      "bufferView": 1,
      "byteOffset": 96672,
      "componentType": 5126,
      "count": 602,
      "max": [
        0.500384509563446,
        0.43336254358291626
      ],
      "min": [
        0.11842796206474304,
        0.41788387298583984
      ],
      "type": "VEC2"
    },
    {
      "bufferView": 0,
      "byteOffset": 199896,
      "componentType": 5125,
      "count": 2880,
      "type": "SCALAR"
    },
    {
      "bufferView": 2,
      "byteOffset": 302832,
      "componentType": 5126,
      "count": 32,
      "max": [
        0.007392744068056345,
        0.1469060778617859,
        -0.0027510691434144974
      ],
      "min": [
        0.006028574425727129,
        0.14555220305919647,
        -0.002751069376245141
      ],
      "type": "VEC3"
    },
    {
      "bufferView": 2,
      "byteOffset": 303216,
      "componentType": 5126,
      "count": 32,
      "max": [
        0.0,
        0.0,
        -1.0
      ],
      "min": [
        0.0,
        0.0,
        -1.0
      ],
      "type": "VEC3"
    },
    {
      "bufferView": 1,
      "byteOffset": 101488,
      "componentType": 5126,
      "count": 32,
      "max": [
        0.012769551016390324,
        0.4693679213523865
      ],
      "min": [
        0.008190197870135307,
        0.46475303173065186
      ],
      "type": "VEC2"
    },
    {
      "bufferView": 0,
      "byteOffset": 211416,
      "componentType": 5125,
      "count": 90,
      "type": "SCALAR"
    },
    {
      "bufferView": 2,
      "byteOffset": 303600,
      "componentType": 5126,
      "count": 64,
      "max": [
        0.015343030914664268,
        0.00011674792040139437,
        0.0008910037577152252
      ],
      "min": [
        -0.015299416147172451,
        0.00011673840344883502,
        -0.000891531934030354
      ],
      "type": "VEC3"
    },
    {
      "bufferView": 2,
      "byteOffset": 304368,
      "componentType": 5126,
      "count": 64,
      "max": [
        0.0,
        -1.0,
        0.0
      ],
      "min": [
        0.0,
        -1.0,
        0.0
      ],
      "type": "VEC3"
    },
    {
      "bufferView": 1,
      "byteOffset": 101744,
      "componentType": 5126,
      "count": 64,
      "max": [
        0.9990724921226501,
        1.0
      ],
      "min": [
        -1.9406259355037037e-07,
        0.0
      ],
      "type": "VEC2"
    },
    {
      "bufferView": 0,
      "byteOffset": 211776,
      "componentType": 5125,
      "count": 168,
      "type": "SCALAR"
    },
    {
      "bufferView": 2,
      "byteOffset": 305136,
      "componentType": 5126,
      "count": 104,
      "max": [
        0.0030859133694320917,
        0.0048528616316616535,
        0.0003132207493763417
      ],
      "min": [
        -0.0031593614257872105,
        0.001219525234773755,
        -0.00031368847703561187
      ],
      "type": "VEC3"
    },
    {
      "bufferView": 2,
      "byteOffset": 306384,
      "componentType": 5126,
      "count": 104,
      "max": [
        0.0,
        0.0,
        1.0
      ],
      "min": [
        0.0,
        0.0,
        -1.0
      ],
      "type": "VEC3"
    },
    {
      "bufferView": 1,
      "byteOffset": 102256,
      "componentType": 5126,
      "count": 104,
      "max": [
        0.38371074199676514,
        0.43225693702697754
      ],
      "min": [
        0.055494748055934906,
        0.41197872161865234
      ],
      "type": "VEC2"
    },
    {
      "bufferView": 0,
      "byteOffset": 212448,
      "componentType": 5125,
      "count": 156,
      "type": "SCALAR"
    },
    {
      "bufferView": 2,
      "byteOffset": 307632,
      "componentType": 5126,
      "count": 730,
      "max": [
        0.023130401968955994,
        0.1417546272277832,
        0.005670260172337294
      ],
      "min": [
        0.017310161143541336,
        0.13593438267707825,
        0.005440369714051485
      ],
      "type": "VEC3"
    },
    {
      "bufferView": 2,
      "byteOffset": 316392,
      "componentType": 5126,
      "count": 730,
      "max": [
        0.5685230493545532,
        0.5685230493545532,
        0.999996542930603
      ],
      "min": [
        -0.568207859992981,
        -0.5683820843696594,
        0.8207740783691406
      ],
      "type": "VEC3"
    },
    {
      "bufferView": 1,
      "byteOffset": 103088,
      "componentType": 5126,
      "count": 730,
      "max": [
        0.14931587874889374,
        0.47748780250549316
      ],
      "min": [
        0.1296265870332718,
        0.45779842138290405
      ],
      "type": "VEC2"
    },
    {
      "bufferView": 0,
      "byteOffset": 213072,
      "componentType": 5125,
      "count": 1920,
      "type": "SCALAR"
    },
    {
      "bufferView": 2,
      "byteOffset": 325152,
      "componentType": 5126,
      "count": 112,
      "max": [
        0.020887739956378937,
        0.13951197266578674,
        0.005498980637639761
      ],
      "min": [
        0.019552819430828094,
        0.1381770372390747,
        0.005491593386977911
      ],
      "type": "VEC3"
    },
    {
      "bufferView": 2,
      "byteOffset": 326496,
      "componentType": 5126,
      "count": 112,
      "max": [
        0.425899863243103,
        0.425899863243103,
        0.9999990463256836
      ],
      "min": [
        -0.425899863243103,
        -0.4260183870792389,
        0.9037389755249023
      ],
      "type": "VEC3"
    },
    {
      "bufferView": 1,
      "byteOffset": 108928,
      "componentType": 5126,
      "count": 112,
      "max": [
        0.1417284458875656,
        0.4699006676673889
      ],
      "min": [
        0.13721252977848053,
        0.46538472175598145
      ],
      "type": "VEC2"
    },
    {
      "bufferView": 0,
      "byteOffset": 220752,
      "componentType": 5125,
      "count": 282,
      "type": "SCALAR"
    }
  ],
  "asset": {
    "extras": {
      "author": "Taufiq K (https://sketchfab.com/fqrhmn)",
      "license": "CC-BY-4.0 (http://creativecommons.org/licenses/by/4.0/)",
      "source": "https://sketchfab.com/3d-models/iphone-17-air-c7dc58ee98e94251804dacf9f28363ad",
      "title": "IPhone 17 Air"
    },
    "generator": "Sketchfab-16.82.0",
    "version": "2.0"
  },
  "bufferViews": [
    {
      "buffer": 0,
      "byteLength": 221880,
      "name": "floatBufferViews",
      "target": 34963
    },
    {
      "buffer": 0,
      "byteLength": 109824,
      "byteOffset": 221880,
      "byteStride": 8,
      "name": "floatBufferViews",
      "target": 34962
    },
    {
      "buffer": 0,
      "byteLength": 327840,
      "byteOffset": 331704,
      "byteStride": 12,
      "name": "floatBufferViews",
      "target": 34962
    }
  ],
  "buffers": [
    {
      "byteLength": 659544,
      "uri": "scene.bin"
    }
  ],
  "extensionsUsed": [
    "KHR_materials_clearcoat",
    "KHR_materials_specular"
  ],
  "images": [
    {
      "uri": "textures/17Air_Screen_baseColor.jpeg"
    }
  ],
  "materials": [
    {
      "doubleSided": true,
      "name": "17Air_color1",
      "pbrMetallicRoughness": {
        "baseColorFactor": [
          0.684169,
          0.87131,
          1.0,
          1.0
        ],
        "roughnessFactor": 0.4
      }
    },
    {
      "doubleSided": true,
      "name": "17Air_color2",
      "pbrMetallicRoughness": {
        "baseColorFactor": [
          0.710558,
          0.881445,
          1.0,
          1.0
        ],
        "roughnessFactor": 0.28
      }
    },
    {
      "doubleSided": true,
      "name": "17Air_color3",
      "pbrMetallicRoughness": {
        "baseColorFactor": [
          0.496563,
          0.614686,
          0.696702,
          1.0
        ],
        "roughnessFactor": 0.4
      }
    },
    {
      "doubleSided": true,
      "emissiveFactor": [
        0.4,
        0.4,
        0.4
      ],
      "emissiveTexture": {
        "index": 0
      },
      "name": "17Air_Screen",
      "pbrMetallicRoughness": {
        "baseColorTexture": {
          "index": 0
        },
        "metallicFactor": 0.0,
        "roughnessFactor": 0.0318182
      }
    },
    {
      "doubleSided": true,
      "name": "17Air_logo",
      "pbrMetallicRoughness": {
        "baseColorFactor": [
          0.572518,
          0.825008,
          1.0,
          1.0
        ],
        "metallicFactor": 0.7,
        "roughnessFactor": 0.0
      }
    },
    {
      "alphaMode": "BLEND",
      "doubleSided": true,
      "extensions": {
        "KHR_materials_clearcoat": {
          "clearcoatFactor": 0.25,
          "clearcoatRoughnessFactor": 0.0
        },
        "KHR_materials_specular": {
          "specularColorFactor": [
            1.0,
            1.0,
            1.0
          ],
          "specularFactor": 1.0
        }
      },
      "name": "17Air_Glass",
      "pbrMetallicRoughness": {
        "baseColorFactor": [
          0.0,
          0.0,
          0.0,
          0.3
        ],
        "metallicFactor": 0.0,
        "roughnessFactor": 0.0
      }
    },
    {
      "doubleSided": true,
      "name": "17Air_Black",
      "pbrMetallicRoughness": {
        "baseColorFactor": [
          0.0,
          0.0,
          0.0,
          1.0
        ],
        "metallicFactor": 0.0,
        "roughnessFactor": 0.563492
      }
    },
    {
      "doubleSided": true,
      "name": "17Air_Lens",
      "pbrMetallicRoughness": {
        "baseColorFactor": [
          0.02628166257837772,
          0.03098184820946861,
          0.14107431122548625,
          1.0
        ],
        "roughnessFactor": 0.0
      }
    },
    {
      "doubleSided": true,
      "name": "17Air_Lens1",
      "pbrMetallicRoughness": {
        "baseColorFactor": [
          0.0207225,
          0.0195324,
          0.0613368,
          1.0
        ],
        "roughnessFactor": 0.0
      }
    },
    {
      "doubleSided": true,
      "name": "17Air_11"
    },
    {
      "doubleSided": true,
      "name": "17Air_12",
      "pbrMetallicRoughness": {
        "baseColorFactor": [
          0.558451,
          0.326408,
          0.00114573,
          1.0
        ],
        "roughnessFactor": 0.517215
      }
    },
    {
      "doubleSided": true,
      "name": "17Air_13",
      "pbrMetallicRoughness": {
        "metallicFactor": 0.0,
        "roughnessFactor": 0.5
      }
    },
    {
      "doubleSided": true,
      "name": "17Air_14",
      "pbrMetallicRoughness": {
        "metallicFactor": 0.0,
        "roughnessFactor": 0.5
      }
    }
  ],
  "meshes": [
    {
      "name": "Object_0",
      "primitives": [
        {
          "attributes": {
            "NORMAL": 1,
            "POSITION": 0,
            "TEXCOORD_0": 2
          },
          "indices": 3,
          "material": 0,
          "mode": 4
        }
      ]
    },
    {
      "name": "Object_1",
      "primitives": [
        {
          "attributes": {
            "NORMAL": 5,
            "POSITION": 4,
            "TEXCOORD_0": 6
          },
          "indices": 7,
          "material": 1,
          "mode": 4
        }
      ]
    },
    {
      "name": "Object_2",
      "primitives": [
        {
          "attributes": {
            "NORMAL": 9,
            "POSITION": 8,
            "TEXCOORD_0": 10
          },
          "indices": 11,
          "material": 2,
          "mode": 4
        }
      ]
    },
    {
      "name": "Object_3",
      "primitives": [
        {
          "attributes": {
            "NORMAL": 13,
            "POSITION": 12,
            "TEXCOORD_0": 14,
            "TEXCOORD_1": 15
          },
          "indices": 16,
          "material": 3,
          "mode": 4
        }
      ]
    },
    {
      "name": "Object_4",
      "primitives": [
        {
          "attributes": {
            "NORMAL": 18,
            "POSITION": 17,
            "TEXCOORD_0": 19
          },
          "indices": 20,
          "material": 4,
          "mode": 4
        }
      ]
    },
    {
      "name": "Object_5",
      "primitives": [
        {
          "attributes": {
            "NORMAL": 22,
            "POSITION": 21,
            "TEXCOORD_0": 23
          },
          "indices": 24,
          "material": 5,
          "mode": 4
        }
      ]
    },
    {
      "name": "Object_6",
      "primitives": [
        {
          "attributes": {
            "NORMAL": 26,
            "POSITION": 25,
            "TEXCOORD_0": 27
          },
          "indices": 28,
          "material": 6,
          "mode": 4
        }
      ]
    },
    {
      "name": "Object_7",
      "primitives": [
        {
          "attributes": {
            "NORMAL": 30,
            "POSITION": 29,
            "TEXCOORD_0": 31
          },
          "indices": 32,
          "material": 7,
          "mode": 4
        }
      ]
    },
    {
      "name": "Object_8",
      "primitives": [
        {
          "attributes": {
            "NORMAL": 34,
            "POSITION": 33,
            "TEXCOORD_0": 35
          },
          "indices": 36,
          "material": 8,
          "mode": 4
        }
      ]
    },
    {
      "name": "Object_9",
      "primitives": [
        {
          "attributes": {
            "NORMAL": 38,
            "POSITION": 37,
            "TEXCOORD_0": 39
          },
          "indices": 40,
          "material": 9,
          "mode": 4
        }
      ]
    },
    {
      "name": "Object_10",
      "primitives": [
        {
          "attributes": {
            "NORMAL": 42,
            "POSITION": 41,
            "TEXCOORD_0": 43
          },
          "indices": 44,
          "material": 10,
          "mode": 4
        }
      ]
    },
    {
      "name": "Object_11",
      "primitives": [
        {
          "attributes": {
            "NORMAL": 46,
            "POSITION": 45,
            "TEXCOORD_0": 47
          },
          "indices": 48,
          "material": 11,
          "mode": 4
        }
      ]
    },
    {
      "name": "Object_12",
      "primitives": [
        {
          "attributes": {
            "NORMAL": 50,
            "POSITION": 49,
            "TEXCOORD_0": 51
          },
          "indices": 52,
          "material": 12,
          "mode": 4
        }
      ]
    }
  ],
  "nodes": [
    {
      "children": [
        1
      ],
      "matrix": [
        1.0,
        0.0,
        0.0,
        0.0,
        0.0,
        2.220446049250313e-16,
        -1.0,
        0.0,
        0.0,
        1.0,
        2.220446049250313e-16,
        0.0,
        0.0,
        0.0,
        0.0,
        1.0
      ],
      "name": "Sketchfab_model"
    },
    {
      "children": [
        2
      ],
      "name": "root"
    },
    {
      "children": [
        3
      ],
      "matrix": [
        1.0,
        0.0,
        0.0,
        0.0,
        0.0,
        2.220446049250313e-16,
        1.0,
        0.0,
        0.0,
        -1.0,
        2.220446049250313e-16,
        0.0,
        0.0,
        0.0,
        0.0,
        1.0
      ],
      "name": "GLTF_SceneRootNode"
    },
    {
      "children": [
        4,
        5,
        6,
        7,
        8,
        9,
        10,
        11,
        12,
        13,
        14,
        15,
        16
      ],
      "name": "IPhone 17 Air_0"
    },
    {
      "mesh": 0,
      "name": "Object_4"
    },
    {
      "mesh": 1,
      "name": "Object_5"
    },
    {
      "mesh": 2,
      "name": "Object_6"
    },
    {
      "mesh": 3,
      "name": "Object_7"
    },
    {
      "mesh": 4,
      "name": "Object_8"
    },
    {
      "mesh": 5,
      "name": "Object_9"
    },
    {
      "mesh": 6,
      "name": "Object_10"
    },
    {
      "mesh": 7,
      "name": "Object_11"
    },
    {
      "mesh": 8,
      "name": "Object_12"
    },
    {
      "mesh": 9,
      "name": "Object_13"
    },
    {
      "mesh": 10,
      "name": "Object_14"
    },
    {
      "mesh": 11,
      "name": "Object_15"
    },
    {
      "mesh": 12,
      "name": "Object_16"
    }
  ],
  "samplers": [
    {
      "magFilter": 9729,
      "minFilter": 9987,
      "wrapS": 10497,
      "wrapT": 10497
    }
  ],
  "scene": 0,
  "scenes": [
    {
      "name": "Sketchfab_Scene",
      "nodes": [
        0
      ]
    }
  ],
  "textures": [
    {
      "sampler": 0,
      "source": 0
    }
  ]
}
